<svg xmlns="http://www.w3.org/2000/svg" width="32" height="32" fill="none"><g opacity=".98"><path fill="#EFF3F6" d="M0 0h32v32H0z" opacity=".01"/><rect width="12" height="10" x="10" y="12" stroke="#3E4056" stroke-width="2" rx="2"/><path stroke="#3E4056" stroke-width="2" d="M12.424 12.471c1.082.394 3.047.156 3.425-.882.378-1.037-.975-2.483-2.056-2.876-1.082-.394-2.264.128-2.642 1.166-.378 1.038.192 2.199 1.273 2.592Z" clip-rule="evenodd"/><path stroke="#3E4056" stroke-width="2" d="M19.576 12.471c-1.082.394-3.047.156-3.425-.882-.378-1.037.975-2.483 2.056-2.876 1.082-.394 2.264.128 2.642 1.166.378 1.038-.192 2.199-1.273 2.592Z" clip-rule="evenodd"/><path fill="#3E4056" d="M15 12h2v10h-2z"/><g fill="#fff"><mask id="a"><path d="M8 13a2 2 0 0 1 2-2h12a2 2 0 0 1 2 2v3a1 1 0 0 1-1 1H9a1 1 0 0 1-1-1v-3Z"/></mask><path stroke="#3E4056" stroke-width="4" d="M8 13a2 2 0 0 1 2-2h12a2 2 0 0 1 2 2v3a1 1 0 0 1-1 1H9a1 1 0 0 1-1-1v-3Z" mask="url(#a)"/></g></g></svg>