<svg xmlns="http://www.w3.org/2000/svg" width="96" height="32" fill="none"><path fill="#EFF3F6" d="M64 0h32v32H64z" opacity=".01"/><path fill="#3E3F58" d="M73.897 11.652a.642.642 0 0 0-.201-.535l-1.494-1.842V9h4.638l3.586 8.048L83.578 9H88v.275l-1.277 1.253a.386.386 0 0 0-.142.367v9.21a.386.386 0 0 0 .142.366l1.247 1.254V22h-6.274v-.275l1.292-1.284c.127-.13.127-.168.127-.367V12.63l-3.593 9.34h-.486l-4.183-9.34v6.26a.876.876 0 0 0 .232.718l1.68 2.086v.275H72v-.275l1.68-2.086c.18-.19.26-.457.217-.718v-7.238Z"/><g opacity=".98"><path fill="#EFF3F6" d="M0 0h32v32H0z" opacity=".01"/><mask id="a" fill="#fff"><path fill-rule="evenodd" d="M17.647 22.4c0 .88-.741 1.6-1.647 1.6s-1.647-.72-1.647-1.6h3.294ZM16 11.512l-.787.181c-1.515.349-2.566 1.643-2.566 3.107V19.6h8.317l.389-.4.412.4L23 20.8v.8H9v-.8l1.235-1.2.412-.4v-4.4c0-2.456 1.754-4.512 4.118-5.056V9.2c0-.664.551-1.2 1.235-1.2.683 0 1.235.536 1.235 1.2v.544c2.364.544 4.118 2.6 4.118 5.056v4.4h-2v-4.4c0-1.464-1.05-2.758-2.566-3.107L16 11.512Z" clip-rule="evenodd"/></mask><path fill="#3E4056" d="M17.647 22.4h2v-2h-2v2Zm-3.294 0v-2h-2v2h2Zm.86-10.707.449 1.95-.449-1.95Zm.787-.181.449-1.95L16 9.46l-.449.103.449 1.949ZM12.647 19.6h-2v2h2v-2Zm8.317 0v2h.846l.589-.606-1.435-1.394Zm.8 0-1.393 1.435 1.394-1.435ZM23 20.8h2v-.846l-.606-.589L23 20.8Zm0 .8v2h2v-2h-2Zm-14 0H7v2h2v-2Zm0-.8-1.394-1.435-.606.59v.845h2Zm1.235-1.2-1.393-1.435 1.393 1.435Zm.412-.4 1.394 1.435.606-.59V19.2h-2Zm4.118-9.456.448 1.949 1.552-.357V9.744h-2Zm2.47 0h-2v1.592l1.552.357.448-1.949Zm2.118 9.456h-2v2h2v-2Zm-2.566-7.507-.449 1.95.449-1.95ZM16 26c1.955 0 3.647-1.561 3.647-3.6h-4c0-.279.21-.4.353-.4v4Zm-3.647-3.6c0 2.039 1.692 3.6 3.647 3.6v-4c.144 0 .353.121.353.4h-4Zm3.294-2h-1.294v4h1.294v-4Zm.353 0h-.353v4H16v-4Zm.353 0H16v4h.353v-4Zm1.294 0h-1.294v4h1.294v-4Zm-1.985-6.758.787-.181-.898-3.898-.786.181.897 3.898ZM14.647 14.8c0-.48.355-1.006 1.015-1.158l-.897-3.898c-2.372.546-4.118 2.607-4.118 5.056h4Zm0 4.4v-4.4h-4v4.4h4Zm0 .4v-.4h-4v.4h4Zm6.317-2h-8.317v4h8.317v-4Zm-1.046.206-.388.4 2.869 2.788.389-.4-2.87-2.788Zm3.24.36-.412-.4-2.787 2.869.412.4 2.787-2.87Zm1.236 1.2-1.236-1.2-2.787 2.869 1.235 1.2 2.788-2.87ZM25 21.6v-.8h-4v.8h4Zm-2.777 2H23v-4h-.777v4ZM21 23.6h1.223v-4H21v4Zm-.047 0H21v-4h-.047v4Zm-9.906 0h9.906v-4h-9.906v4Zm-.047 0h.047v-4H11v4Zm-1.223 0H11v-4H9.777v4ZM9 23.6h.777v-4H9v4Zm-2-2.8v.8h4v-.8H7Zm1.842-2.635-1.236 1.2 2.788 2.87 1.235-1.2-2.787-2.87Zm.411-.4-.411.4 2.787 2.87.412-.4-2.788-2.87ZM8.647 14.8v4.4h4v-4.4h-4Zm5.67-7.005c-3.212.74-5.67 3.557-5.67 7.005h4c0-1.464 1.05-2.758 2.566-3.107l-.897-3.898ZM12.764 9.2v.544h4V9.2h-4ZM16 6c-1.733 0-3.235 1.377-3.235 3.2h4c0 .495-.399.8-.765.8V6Zm3.235 3.2C19.235 7.377 17.733 6 16 6v4a.784.784 0 0 1-.765-.8h4Zm0 .544V9.2h-4v.544h4Zm4.118 5.056c0-3.448-2.458-6.266-5.67-7.005l-.896 3.898c1.515.349 2.566 1.643 2.566 3.107h4Zm0 4.4v-4.4h-4v4.4h4Zm-4 2h2v-4h-2v4Zm-2-6.4v4.4h4v-4.4h-4Zm-1.015-1.158c.66.152 1.015.678 1.015 1.158h4c0-2.449-1.747-4.51-4.118-5.056l-.897 3.898Zm-.787-.181.787.181.897-3.898-.786-.181-.898 3.898Z" mask="url(#a)"/></g><g opacity=".98"><path fill="#EFF3F6" d="M32 0h32v32H32z" opacity=".01"/><rect width="12" height="10" x="42" y="12" stroke="#3E4056" stroke-width="2" rx="2"/><path stroke="#3E4056" stroke-width="2" d="M44.424 12.471c1.082.394 3.047.156 3.425-.882.378-1.037-.975-2.483-2.056-2.876-1.082-.394-2.264.128-2.642 1.166-.378 1.038.192 2.199 1.273 2.592Z" clip-rule="evenodd"/><path stroke="#3E4056" stroke-width="2" d="M51.576 12.471c-1.082.394-3.047.156-3.425-.882-.378-1.037.975-2.483 2.056-2.876 1.082-.394 2.264.128 2.642 1.166.378 1.038-.192 2.199-1.273 2.592Z" clip-rule="evenodd"/><path fill="#3E4056" d="M47 12h2v10h-2z"/><mask id="b" fill="#fff"><path d="M40 13a2 2 0 0 1 2-2h12a2 2 0 0 1 2 2v3a1 1 0 0 1-1 1H41a1 1 0 0 1-1-1v-3Z"/></mask><path fill="#fff" stroke="#3E4056" stroke-width="4" d="M40 13a2 2 0 0 1 2-2h12a2 2 0 0 1 2 2v3a1 1 0 0 1-1 1H41a1 1 0 0 1-1-1v-3Z" mask="url(#b)"/></g></svg>