<svg xmlns="http://www.w3.org/2000/svg" width="20" height="20" fill="none"><path fill="#3E4056" fill-rule="evenodd" d="M8.588 4.34a5.001 5.001 0 0 1 7.071 7.071l-4.247 4.248a5.002 5.002 0 0 1-7.069-.002 5.001 5.001 0 0 1-.002-7.069l4.247-4.247Zm1.414 1.415-4.247 4.247a3 3 0 0 0 4.243 4.243l4.247-4.247a3 3 0 0 0-4.243-4.243ZM7.879 5.05 5.05 7.88l1.414 1.414 2.829-2.829L7.879 5.05Zm5.657 5.657-2.829 2.829 1.414 1.414 2.829-2.829-1.414-1.414Zm-2.822-2.835a.993.993 0 0 1 1.407.007 1 1 0 0 1 .007 1.407l-2.842 2.842a.993.993 0 0 1-1.407-.007 1 1 0 0 1-.007-1.407l2.842-2.842Z" clip-rule="evenodd"/><mask id="a" width="16" height="16" x="2" y="2" maskUnits="userSpaceOnUse" style="mask-type:luminance"><path fill="#fff" fill-rule="evenodd" d="M8.588 4.34a5.001 5.001 0 0 1 7.071 7.071l-4.247 4.248a5.002 5.002 0 0 1-7.069-.002 5.001 5.001 0 0 1-.002-7.069l4.247-4.247Zm1.414 1.415-4.247 4.247a3 3 0 0 0 4.243 4.243l4.247-4.247a3 3 0 0 0-4.243-4.243ZM7.879 5.05 5.05 7.88l1.414 1.414 2.829-2.829L7.879 5.05Zm5.657 5.657-2.829 2.829 1.414 1.414 2.829-2.829-1.414-1.414Zm-2.822-2.835a.993.993 0 0 1 1.407.007 1 1 0 0 1 .007 1.407l-2.842 2.842a.993.993 0 0 1-1.407-.007 1 1 0 0 1-.007-1.407l2.842-2.842Z" clip-rule="evenodd"/></mask><g mask="url(#a)"><path fill="#3E4056" d="M2 2h16v16H2z"/></g><path fill="#3E4056" fill-rule="evenodd" d="M5.05 7.879a.998.998 0 0 1 1.415 0 .998.998 0 0 1 0 1.414.998.998 0 0 1-1.415 0 .998.998 0 0 1 0-1.414Zm5.657 5.657a.998.998 0 0 1 1.414 0 .997.997 0 0 1 0 1.414.997.997 0 0 1-1.414 0 .998.998 0 0 1 0-1.414Zm2.829-2.829a.998.998 0 0 1 1.414 0 .998.998 0 0 1 0 1.414.998.998 0 0 1-1.414 0 .997.997 0 0 1 0-1.414ZM7.879 5.05a.998.998 0 0 1 1.414 0 .998.998 0 0 1 0 1.414.998.998 0 0 1-1.414 0 .998.998 0 0 1 0-1.414Z" clip-rule="evenodd"/><mask id="b" width="12" height="12" x="4" y="4" maskUnits="userSpaceOnUse" style="mask-type:luminance"><path fill="#fff" fill-rule="evenodd" d="M5.05 7.879a.998.998 0 0 1 1.415 0 .998.998 0 0 1 0 1.414.998.998 0 0 1-1.415 0 .998.998 0 0 1 0-1.414Zm5.657 5.657a.998.998 0 0 1 1.414 0 .997.997 0 0 1 0 1.414.997.997 0 0 1-1.414 0 .998.998 0 0 1 0-1.414Zm2.829-2.829a.998.998 0 0 1 1.414 0 .998.998 0 0 1 0 1.414.998.998 0 0 1-1.414 0 .997.997 0 0 1 0-1.414ZM7.879 5.05a.998.998 0 0 1 1.414 0 .998.998 0 0 1 0 1.414.998.998 0 0 1-1.414 0 .998.998 0 0 1 0-1.414Z" clip-rule="evenodd"/></mask><g mask="url(#b)"><path fill="#3E4056" d="M2 2h16v16H2z"/></g></svg>
