<svg xmlns="http://www.w3.org/2000/svg" width="16" height="16" fill="none"><path fill="#ECF1F8" d="M0 0h16v16H0z" opacity=".01"/><path fill="#3E4056" fill-rule="evenodd" d="M15 8a2.306 2.306 0 0 1-.929 1.814L7.96 14.496c-.732.554-1.73.66-2.57.275-.842-.386-1.381-1.196-1.39-2.09V3.319c.009-.893.548-1.703 1.39-2.089a2.533 2.533 0 0 1 2.57.275l6.111 4.682c.58.439.922 1.106.929 1.814Z" clip-rule="evenodd"/><mask id="a" width="11" height="14" x="4" y="1" maskUnits="userSpaceOnUse" style="mask-type:luminance"><path fill="#fff" fill-rule="evenodd" d="M15 8a2.306 2.306 0 0 1-.929 1.814L7.96 14.496c-.732.554-1.73.66-2.57.275-.842-.386-1.381-1.196-1.39-2.09V3.319c.009-.893.548-1.703 1.39-2.089a2.533 2.533 0 0 1 2.57.275l6.111 4.682c.58.439.922 1.106.929 1.814Z" clip-rule="evenodd"/></mask><g mask="url(#a)"><path fill="#3E4056" d="M0 0h16v16H0z"/></g></svg>